# xmcd
#
# Track frame offsets:
#	150
#	14890
#	31556
#	45373
#	59326
#	75745
#	91045
#	105039
#	121092
#	136389
#	151355
#	166983
#	181601
#	198848
#
# Disc length: 2858 seconds
#
# Revision: 1
# Processed by: cddbd v1.5.2PL0 Copyright (c) Steve Scherf et al.
# Submitted via: audiograbber 1.83.01
#
DISCID=970b280e
DTITLE=Truck Stop  - Leb' dein Leben  
DYEAR=2008
DGENRE=Country
TTITLE0=Country Sommernacht 
TTITLE1=Cisco Dance
TTITLE2=Fern der Heimat
TTITLE3=Alle meine Ex-Frauen wohn in Bayern
TTITLE4=Leb dein Leben
TTITLE5=Textil des Grauens
TTITLE6=Hamburger Wind
TTITLE7=Aus den Augen aus dem Sinn
TTITLE8=Rosa von der Raste
TTITLE9=Es ist schön so allein
TTITLE10=Wieder auf der Staße
TTITLE11=Cowboys sterben nicht
TTITLE12=Unsere Heide ist die Prärie
TTITLE13=Der Sheriff hat heute Geburtstag [Radio Version]
EXTD=
EXTT0=
EXTT1=
EXTT2=
EXTT3=
EXTT4=
EXTT5=
EXTT6=
EXTT7=
EXTT8=
EXTT9=
EXTT10=
EXTT11=
EXTT12=
EXTT13=
PLAYORDER=
